<svg width="9" height="7" viewBox="0 0 9 7" fill="none" xmlns="http://www.w3.org/2000/svg">
<path d="M6.54916 0.650621L8.87155 3.17455L8.8791 3.18275L8.88317 3.18653L8.88665 3.19095L8.89071 3.196L8.89362 3.19978L8.89826 3.20546L8.90291 3.21177L8.91162 3.22502L8.918 3.23386L8.92381 3.24269L8.92961 3.25216L8.92961 3.25594L8.93484 3.26162L8.93484 3.26604L8.93484 3.27109L8.94123 3.27676L8.94123 3.28055L8.94877 3.28812C8.99378 3.37991 9.00975 3.48524 8.99422 3.58786C8.97869 3.69049 8.93253 3.78472 8.86285 3.85601L6.54916 6.36731C6.46699 6.45347 6.35698 6.50112 6.2428 6.49998C6.12863 6.49884 6.01944 6.44902 5.93874 6.36123C5.85804 6.27345 5.81229 6.15473 5.81136 6.03065C5.81042 5.90657 5.85436 5.78705 5.93372 5.69784L7.51237 3.9822L0.435449 3.9822C0.319961 3.9822 0.209202 3.93234 0.12754 3.84359C0.0458777 3.75484 -7.03162e-07 3.63447 -6.9219e-07 3.50896C-6.81217e-07 3.38345 0.0458777 3.26309 0.12754 3.17434C0.209202 3.08559 0.319961 3.03573 0.435449 3.03573L7.51237 3.03573L5.93372 1.31946C5.89094 1.27614 5.85663 1.22389 5.83283 1.16584C5.80903 1.10779 5.79623 1.04513 5.7952 0.981585C5.79417 0.918043 5.80492 0.854927 5.82682 0.796001C5.84872 0.737075 5.88132 0.683546 5.92267 0.638609C5.96402 0.593671 6.01327 0.558244 6.06749 0.534443C6.12172 0.510642 6.17979 0.498953 6.23826 0.500074C6.29673 0.501195 6.35439 0.515103 6.4078 0.540969C6.46122 0.566834 6.50929 0.604126 6.54916 0.650621Z" fill="white" fill-opacity="0.85"/>
</svg>
