<svg width="161" height="30" viewBox="0 0 161 30" fill="none" xmlns="http://www.w3.org/2000/svg">
<g filter="url(#filter0_d_416_16)">
<path d="M31.793 20.8093H33.0244L34.4289 16.2896H40.3358L41.8365 20.8093H45.2806L40.0856 5.1907H36.6416L31.793 20.8093ZM34.756 15.2408L37.2765 7.09773L39.9894 15.2408H34.756Z" fill="black"/>
<path d="M31.793 20.8093H33.0244L34.4289 16.2896H40.3358L41.8365 20.8093H45.2806L40.0856 5.1907H36.6416L31.793 20.8093ZM34.756 15.2408L37.2765 7.09773L39.9894 15.2408H34.756Z" fill="url(#paint0_linear_416_16)"/>
<path d="M57.6021 18.3302C57.6021 18.3302 56.5246 19.9511 53.3499 19.9511C51.1565 19.9511 49.1939 18.5209 49.1939 12.9142C49.1939 7.30751 51.1757 6.04887 53.3499 6.04887C56.3514 6.04887 57.3712 7.7652 57.3712 7.7652L58.3332 6.69726C58.3332 6.69726 56.6785 5 53.3499 5C50.5985 5 45.6344 6.69726 45.6344 12.9142C45.6344 19.1311 50.5793 21 53.3499 21C56.717 21 58.6603 19.5125 58.6603 19.5125L57.6021 18.3302Z" fill="black"/>
<path d="M57.6021 18.3302C57.6021 18.3302 56.5246 19.9511 53.3499 19.9511C51.1565 19.9511 49.1939 18.5209 49.1939 12.9142C49.1939 7.30751 51.1757 6.04887 53.3499 6.04887C56.3514 6.04887 57.3712 7.7652 57.3712 7.7652L58.3332 6.69726C58.3332 6.69726 56.6785 5 53.3499 5C50.5985 5 45.6344 6.69726 45.6344 12.9142C45.6344 19.1311 50.5793 21 53.3499 21C56.717 21 58.6603 19.5125 58.6603 19.5125L57.6021 18.3302Z" fill="url(#paint1_linear_416_16)"/>
<path d="M59.4128 20.8093H60.6442L62.0487 16.2896H67.9556L69.4563 20.8093H72.9004L67.7054 5.1907H64.2614L59.4128 20.8093ZM62.3758 15.2408L64.8963 7.09773L67.6092 15.2408H62.3758Z" fill="black"/>
<path d="M59.4128 20.8093H60.6442L62.0487 16.2896H67.9556L69.4563 20.8093H72.9004L67.7054 5.1907H64.2614L59.4128 20.8093ZM62.3758 15.2408L64.8963 7.09773L67.6092 15.2408H62.3758Z" fill="url(#paint2_linear_416_16)"/>
<path d="M74.6086 5.1907V20.8093H81.0927C83.8441 20.8093 88.7889 19.1311 88.7889 12.9142C88.7889 6.69726 83.8441 5.1907 81.0927 5.1907H74.6086ZM77.8795 19.7604V6.23957H81.0927C83.2668 6.23957 85.3256 7.28844 85.3256 12.8951C85.3256 18.5018 83.2668 19.7604 81.0927 19.7604H77.8795Z" fill="black"/>
<path d="M74.6086 5.1907V20.8093H81.0927C83.8441 20.8093 88.7889 19.1311 88.7889 12.9142C88.7889 6.69726 83.8441 5.1907 81.0927 5.1907H74.6086ZM77.8795 19.7604V6.23957H81.0927C83.2668 6.23957 85.3256 7.28844 85.3256 12.8951C85.3256 18.5018 83.2668 19.7604 81.0927 19.7604H77.8795Z" fill="url(#paint3_linear_416_16)"/>
<path d="M91.5069 20.8093H101.82V19.6651H94.7778V13.2765H100.55V12.1704H94.7778V6.33492H101.666V5.1907H91.5069V20.8093Z" fill="black"/>
<path d="M91.5069 20.8093H101.82V19.6651H94.7778V13.2765H100.55V12.1704H94.7778V6.33492H101.666V5.1907H91.5069V20.8093Z" fill="url(#paint4_linear_416_16)"/>
<path d="M104.008 20.8093H105.278L106.028 8.45173L110.107 20.8093H113.551L117.323 8.50894L118.131 20.8093H121.402L120.382 5.1907H117.111L112.917 18.8832L108.395 5.1907H104.951L104.008 20.8093Z" fill="black"/>
<path d="M104.008 20.8093H105.278L106.028 8.45173L110.107 20.8093H113.551L117.323 8.50894L118.131 20.8093H121.402L120.382 5.1907H117.111L112.917 18.8832L108.395 5.1907H104.951L104.008 20.8093Z" fill="url(#paint5_linear_416_16)"/>
<path d="M123.975 20.8093H127.15V5.1907H123.975V20.8093Z" fill="black"/>
<path d="M123.975 20.8093H127.15V5.1907H123.975V20.8093Z" fill="url(#paint6_linear_416_16)"/>
<path d="M141.702 18.3302C141.702 18.3302 140.624 19.9511 137.449 19.9511C135.256 19.9511 133.293 18.5209 133.293 12.9142C133.293 7.30751 135.275 6.04887 137.449 6.04887C140.451 6.04887 141.471 7.7652 141.471 7.7652L142.433 6.69726C142.433 6.69726 140.778 5 137.449 5C134.698 5 129.734 6.69726 129.734 12.9142C129.734 19.1311 134.679 21 137.449 21C140.817 21 142.76 19.5125 142.76 19.5125L141.702 18.3302Z" fill="black"/>
<path d="M141.702 18.3302C141.702 18.3302 140.624 19.9511 137.449 19.9511C135.256 19.9511 133.293 18.5209 133.293 12.9142C133.293 7.30751 135.275 6.04887 137.449 6.04887C140.451 6.04887 141.471 7.7652 141.471 7.7652L142.433 6.69726C142.433 6.69726 140.778 5 137.449 5C134.698 5 129.734 6.69726 129.734 12.9142C129.734 19.1311 134.679 21 137.449 21C140.817 21 142.76 19.5125 142.76 19.5125L141.702 18.3302Z" fill="url(#paint7_linear_416_16)"/>
<path d="M143.512 20.8093H144.744L146.148 16.2896H152.055L153.556 20.8093H157L151.805 5.1907H148.361L143.512 20.8093ZM146.475 15.2408L148.996 7.09773L151.709 15.2408H146.475Z" fill="black"/>
<path d="M143.512 20.8093H144.744L146.148 16.2896H152.055L153.556 20.8093H157L151.805 5.1907H148.361L143.512 20.8093ZM146.475 15.2408L148.996 7.09773L151.709 15.2408H146.475Z" fill="url(#paint8_linear_416_16)"/>
</g>
<g filter="url(#filter1_d_416_16)">
<path d="M4.32673 8.84927H25.9635C26.2352 8.84927 26.2756 8.72114 26.0548 8.56333L15.5475 1.11674C15.3268 0.961087 14.966 0.961087 14.7431 1.11674L4.23528 8.56333C4.01455 8.72114 4.05505 8.84927 4.32673 8.84927ZM6.6787 7.7887L14.7425 2.07468C14.9654 1.91667 15.3262 1.91667 15.5469 2.07468L23.609 7.7887C23.8319 7.94456 23.7896 8.07076 23.5177 8.07076L6.77404 8.07054C6.50235 8.07054 6.4597 7.94456 6.6787 7.7887Z" fill="url(#paint9_linear_416_16)"/>
<path d="M9.2748 10.6969C9.45499 10.6969 9.60178 10.478 9.60178 10.2086V9.9201C9.60178 9.65072 9.37888 9.42949 9.10719 9.42949H6.36038C6.09086 9.42949 5.86796 9.65072 5.86796 9.9201V10.2086C5.86796 10.478 6.01432 10.6969 6.19494 10.6969C6.37752 10.6969 6.52387 10.9159 6.52387 11.1851V17.6218C6.52387 17.8914 6.37752 18.1124 6.19494 18.1124C6.01432 18.1124 5.86796 18.3312 5.86796 18.6006V18.887C5.86796 19.1564 6.09086 19.3774 6.36038 19.3774H9.10696C9.37865 19.3774 9.60156 19.1564 9.60156 18.887V18.6006C9.60156 18.3312 9.45477 18.1124 9.27458 18.1124C9.09396 18.1124 8.94543 17.8914 8.94543 17.6218L8.94521 11.1851C8.94564 10.9162 9.09418 10.6969 9.2748 10.6969Z" fill="url(#paint10_linear_416_16)"/>
<path d="M14.2523 10.6969C14.4349 10.6969 14.5814 10.478 14.5814 10.2086V9.9201C14.5814 9.65072 14.3585 9.42949 14.0868 9.42949H11.34C11.0683 9.42949 10.8454 9.65072 10.8454 9.9201V10.2086C10.8454 10.478 10.994 10.6969 11.1746 10.6969C11.3552 10.6969 11.5014 10.9159 11.5014 11.1851V17.6218C11.5014 17.8914 11.355 18.1124 11.1746 18.1124C10.9944 18.1124 10.8454 18.3312 10.8454 18.6006V18.887C10.8454 19.1564 11.0683 19.3774 11.34 19.3774H14.0866C14.3583 19.3774 14.5812 19.1564 14.5812 18.887V18.6006C14.5812 18.3312 14.4344 18.1124 14.2521 18.1124C14.0714 18.1124 13.9229 17.8914 13.9229 17.6218V11.1851C13.9236 10.9162 14.0721 10.6969 14.2523 10.6969Z" fill="url(#paint11_linear_416_16)"/>
<path d="M19.2325 10.6969C19.4151 10.6969 19.5595 10.478 19.5595 10.2086V9.9201C19.5595 9.65072 19.3366 9.42949 19.0671 9.42949H16.3205C16.0488 9.42949 15.8259 9.65072 15.8259 9.9201V10.2086C15.8259 10.478 15.9723 10.6969 16.1551 10.6969C16.3335 10.6969 16.4818 10.9159 16.4818 11.1851V17.6218C16.4818 17.8914 16.3333 18.1124 16.1551 18.1124C15.9725 18.1124 15.8259 18.3312 15.8259 18.6006V18.887C15.8259 19.1564 16.0488 19.3774 16.3205 19.3774H19.0671C19.3366 19.3774 19.5595 19.1564 19.5595 18.887V18.6006C19.5595 18.3312 19.4149 18.1124 19.2325 18.1124C19.0519 18.1124 18.9034 17.8914 18.9034 17.6218V11.1851C18.9034 10.9162 19.0519 10.6969 19.2325 10.6969Z" fill="url(#paint12_linear_416_16)"/>
<path d="M24.2122 10.6969C24.3903 10.6969 24.5392 10.478 24.5392 10.2086V9.9201C24.5392 9.65072 24.3163 9.42949 24.0468 9.42949H21.3002C21.0285 9.42949 20.8035 9.65072 20.8035 9.9201V10.2086C20.8035 10.478 20.952 10.6969 21.1346 10.6969C21.3108 10.6969 21.4592 10.9159 21.4592 11.1851V17.6218C21.4592 17.8914 21.3106 18.1124 21.1346 18.1124C20.952 18.1124 20.8035 18.3312 20.8035 18.6006V18.887C20.8035 19.1564 21.0285 19.3774 21.3002 19.3774H24.0468C24.3163 19.3774 24.5392 19.1564 24.5392 18.887V18.6006C24.5392 18.3312 24.3903 18.1124 24.2122 18.1124C24.0297 18.1124 23.8831 17.8914 23.8831 17.6218V11.1851C23.8835 10.9162 24.0299 10.6969 24.2122 10.6969Z" fill="url(#paint13_linear_416_16)"/>
<path d="M26.0296 21.924C25.885 21.924 25.7685 21.7763 25.7685 21.5955C25.7685 21.4192 25.6239 21.2694 25.4502 21.2694C25.2739 21.2694 25.1298 21.1239 25.1298 20.943C25.1298 20.762 24.9979 20.6147 24.8349 20.6147C24.6714 20.6147 24.54 20.4671 24.54 20.2884C24.54 20.1097 24.3171 19.962 24.0475 19.962L6.24529 19.9618C5.9736 19.9618 5.75069 20.1095 5.75069 20.2882C5.75069 20.4668 5.61713 20.6145 5.4558 20.6145C5.29448 20.6145 5.16091 20.7622 5.16091 20.9428C5.16091 21.1234 5.01845 21.2692 4.8426 21.2692C4.66459 21.2692 4.52213 21.4186 4.52213 21.5953C4.52213 21.7766 4.40547 21.9238 4.26106 21.9238C4.11861 21.9238 4 22.0711 4 22.2517C4 22.4329 4.2229 22.5802 4.4946 22.5802H25.7989C26.0706 22.5802 26.2913 22.4325 26.2913 22.2517C26.2909 22.0713 26.1738 21.924 26.0296 21.924Z" fill="url(#paint14_linear_416_16)"/>
<path d="M7.58733 7.81351H22.7035C22.9752 7.81351 23.0177 7.6871 22.7948 7.52714L15.5481 2.39148C15.3274 2.23604 14.9665 2.23604 14.7437 2.39148L7.49643 7.52714C7.27353 7.6871 7.31542 7.81351 7.58733 7.81351Z" fill="url(#paint15_linear_416_16)"/>
</g>
<defs>
<filter id="filter0_d_416_16" x="27.793" y="4" width="133.207" height="24" filterUnits="userSpaceOnUse" color-interpolation-filters="sRGB">
<feFlood flood-opacity="0" result="BackgroundImageFix"/>
<feColorMatrix in="SourceAlpha" type="matrix" values="0 0 0 0 0 0 0 0 0 0 0 0 0 0 0 0 0 0 127 0" result="hardAlpha"/>
<feOffset dy="3"/>
<feGaussianBlur stdDeviation="2"/>
<feComposite in2="hardAlpha" operator="out"/>
<feColorMatrix type="matrix" values="0 0 0 0 0 0 0 0 0 0 0 0 0 0 0 0 0 0 0.23 0"/>
<feBlend mode="normal" in2="BackgroundImageFix" result="effect1_dropShadow_416_16"/>
<feBlend mode="normal" in="SourceGraphic" in2="effect1_dropShadow_416_16" result="shape"/>
</filter>
<filter id="filter1_d_416_16" x="0" y="0" width="30.2914" height="29.5802" filterUnits="userSpaceOnUse" color-interpolation-filters="sRGB">
<feFlood flood-opacity="0" result="BackgroundImageFix"/>
<feColorMatrix in="SourceAlpha" type="matrix" values="0 0 0 0 0 0 0 0 0 0 0 0 0 0 0 0 0 0 127 0" result="hardAlpha"/>
<feOffset dy="3"/>
<feGaussianBlur stdDeviation="2"/>
<feComposite in2="hardAlpha" operator="out"/>
<feColorMatrix type="matrix" values="0 0 0 0 0 0 0 0 0 0 0 0 0 0 0 0 0 0 0.23 0"/>
<feBlend mode="normal" in2="BackgroundImageFix" result="effect1_dropShadow_416_16"/>
<feBlend mode="normal" in="SourceGraphic" in2="effect1_dropShadow_416_16" result="shape"/>
</filter>
<linearGradient id="paint0_linear_416_16" x1="27.5657" y1="10.7419" x2="32.4297" y2="-9.83102" gradientUnits="userSpaceOnUse">
<stop stop-color="#5042AF"/>
<stop offset="1" stop-color="#6742D1"/>
</linearGradient>
<linearGradient id="paint1_linear_416_16" x1="27.5657" y1="10.7419" x2="32.4297" y2="-9.83102" gradientUnits="userSpaceOnUse">
<stop stop-color="#5042AF"/>
<stop offset="1" stop-color="#6742D1"/>
</linearGradient>
<linearGradient id="paint2_linear_416_16" x1="27.5657" y1="10.7419" x2="32.4297" y2="-9.83102" gradientUnits="userSpaceOnUse">
<stop stop-color="#5042AF"/>
<stop offset="1" stop-color="#6742D1"/>
</linearGradient>
<linearGradient id="paint3_linear_416_16" x1="27.5657" y1="10.7419" x2="32.4297" y2="-9.83102" gradientUnits="userSpaceOnUse">
<stop stop-color="#5042AF"/>
<stop offset="1" stop-color="#6742D1"/>
</linearGradient>
<linearGradient id="paint4_linear_416_16" x1="27.5657" y1="10.7419" x2="32.4297" y2="-9.83102" gradientUnits="userSpaceOnUse">
<stop stop-color="#5042AF"/>
<stop offset="1" stop-color="#6742D1"/>
</linearGradient>
<linearGradient id="paint5_linear_416_16" x1="27.5657" y1="10.7419" x2="32.4297" y2="-9.83102" gradientUnits="userSpaceOnUse">
<stop stop-color="#5042AF"/>
<stop offset="1" stop-color="#6742D1"/>
</linearGradient>
<linearGradient id="paint6_linear_416_16" x1="27.5657" y1="10.7419" x2="32.4297" y2="-9.83102" gradientUnits="userSpaceOnUse">
<stop stop-color="#5042AF"/>
<stop offset="1" stop-color="#6742D1"/>
</linearGradient>
<linearGradient id="paint7_linear_416_16" x1="27.5657" y1="10.7419" x2="32.4297" y2="-9.83102" gradientUnits="userSpaceOnUse">
<stop stop-color="#5042AF"/>
<stop offset="1" stop-color="#6742D1"/>
</linearGradient>
<linearGradient id="paint8_linear_416_16" x1="27.5657" y1="10.7419" x2="32.4297" y2="-9.83102" gradientUnits="userSpaceOnUse">
<stop stop-color="#5042AF"/>
<stop offset="1" stop-color="#6742D1"/>
</linearGradient>
<linearGradient id="paint9_linear_416_16" x1="6.82694" y1="4.26236" x2="10.2789" y2="-0.987594" gradientUnits="userSpaceOnUse">
<stop stop-color="#6557C6"/>
<stop offset="1" stop-color="#7D56EC"/>
</linearGradient>
<linearGradient id="paint10_linear_416_16" x1="6.82694" y1="4.26236" x2="10.2789" y2="-0.987594" gradientUnits="userSpaceOnUse">
<stop stop-color="#6557C6"/>
<stop offset="1" stop-color="#7D56EC"/>
</linearGradient>
<linearGradient id="paint11_linear_416_16" x1="6.82694" y1="4.26236" x2="10.2789" y2="-0.987594" gradientUnits="userSpaceOnUse">
<stop stop-color="#6557C6"/>
<stop offset="1" stop-color="#7D56EC"/>
</linearGradient>
<linearGradient id="paint12_linear_416_16" x1="6.82694" y1="4.26236" x2="10.2789" y2="-0.987594" gradientUnits="userSpaceOnUse">
<stop stop-color="#6557C6"/>
<stop offset="1" stop-color="#7D56EC"/>
</linearGradient>
<linearGradient id="paint13_linear_416_16" x1="6.82694" y1="4.26236" x2="10.2789" y2="-0.987594" gradientUnits="userSpaceOnUse">
<stop stop-color="#6557C6"/>
<stop offset="1" stop-color="#7D56EC"/>
</linearGradient>
<linearGradient id="paint14_linear_416_16" x1="6.82694" y1="4.26236" x2="10.2789" y2="-0.987594" gradientUnits="userSpaceOnUse">
<stop stop-color="#6557C6"/>
<stop offset="1" stop-color="#7D56EC"/>
</linearGradient>
<linearGradient id="paint15_linear_416_16" x1="6.82694" y1="4.26236" x2="10.2789" y2="-0.987594" gradientUnits="userSpaceOnUse">
<stop stop-color="#6557C6"/>
<stop offset="1" stop-color="#7D56EC"/>
</linearGradient>
</defs>
</svg>
