<svg width="18" height="18" viewBox="0 0 18 18" fill="none" xmlns="http://www.w3.org/2000/svg">
<path fill-rule="evenodd" clip-rule="evenodd" d="M17.0848 14.9324C17.5298 10.6557 17.5298 6.34435 17.0848 2.06765C16.9261 0.542602 15.1678 -0.229913 13.9372 0.684807L9.83356 3.73522C8.58311 4.66473 7.06648 5.16668 5.5084 5.16668H1.6792C0.988844 5.16668 0.429199 5.72632 0.429199 6.41668V10.5833C0.429199 11.2737 0.988842 11.8333 1.6792 11.8333H2.30348L1.45812 14.9883C1.36392 15.3398 1.53573 15.7083 1.86559 15.8621L5.54674 17.5787C5.74766 17.6724 5.97974 17.6724 6.18067 17.5787C6.3816 17.485 6.53078 17.3072 6.58815 17.0931L7.85085 12.3806C7.86426 12.3306 7.87228 12.2804 7.87526 12.2306C8.57273 12.4715 9.23377 12.819 9.83356 13.2648L13.9372 16.3152C15.1677 17.2299 16.9261 16.4574 17.0848 14.9324ZM15.5928 2.22288C16.0271 6.39637 16.0271 10.6037 15.5928 14.7771C15.5545 15.1458 15.1295 15.3325 14.8321 15.1114L10.7284 12.061C9.21926 10.9391 7.38884 10.3333 5.50839 10.3333L1.9292 10.3333L1.9292 6.66668H5.5084C7.38884 6.66668 9.21926 6.06088 10.7284 4.93905L14.8321 1.88864C15.1295 1.66755 15.5545 1.85427 15.5928 2.22288ZM6.43615 11.8929C6.12975 11.8534 5.8199 11.8333 5.50839 11.8333H3.85639L3.06989 14.7686L5.3706 15.8415L6.40196 11.9924C6.41118 11.958 6.42264 11.9248 6.43615 11.8929Z" fill="#3E3E3E"/>
</svg>
